<svg><defs><symbol id="icon-facebook" viewBox="0 0 32 32"><path d="M11.439 6.175c0-.199.028-.63.083-1.29.06-.661.309-1.352.756-2.078.443-.723 1.162-1.373 2.162-1.948.996-.572 2.435-.86 4.314-.86h5.292v5.767h-3.874c-.384 0-.741.144-1.064.428-.32.284-.485.554-.485.805v3.588h5.422a74.622 74.622 0 0 1-.191 2.045l-.215 1.743a68.031 68.031 0 0 1-.259 1.637h-4.796V32h-7.145V16.01H7.954v-5.423h3.485V6.175z"/></symbol><symbol id="icon-instagram" viewBox="0 0 32 32"><path d="M4.107 0h23.785c2.259 0 4.107 1.672 4.107 4.107v23.786c0 2.435-1.848 4.107-4.107 4.107H4.107C1.847 32 0 30.328 0 27.893V4.107C0 1.672 1.848 0 4.107 0zm19.204 3.555c-.792 0-1.44.648-1.44 1.441v3.448c0 .792.648 1.441 1.44 1.441h3.617c.792 0 1.441-.648 1.441-1.441V4.996c0-.793-.648-1.441-1.441-1.441h-3.617zm5.072 9.978h-2.816c.266.87.411 1.792.411 2.745 0 5.323-4.454 9.637-9.947 9.637S6.085 21.6 6.085 16.278c0-.954.144-1.875.411-2.745H3.557V27.05c0 .7.572 1.272 1.272 1.272h22.284c.7 0 1.272-.572 1.272-1.272V13.533h-.001zM16.03 9.703c-3.549 0-6.427 2.788-6.427 6.227s2.878 6.227 6.427 6.227c3.549 0 6.427-2.788 6.427-6.227s-2.878-6.227-6.427-6.227z"/></symbol><symbol id="icon-search" viewBox="0 0 32 32"><path d="M13.389 5.241a1.674 1.674 0 0 0 0 3.346 5.265 5.265 0 0 1 4.766 2.982 1.673 1.673 0 0 0 3.008-1.467 8.59 8.59 0 0 0-7.774-4.861z"/><path d="M31.387 28.219l-5.575-5.576a14.12 14.12 0 0 0 2.631-8.211C28.443 6.59 22.063.21 14.221.21S0 6.59 0 14.432c0 7.841 6.379 14.221 14.221 14.221 3.276 0 6.287-1.124 8.694-2.992l5.514 5.514a2.087 2.087 0 0 0 2.958 0 2.09 2.09 0 0 0 0-2.957zM3.347 14.433c0-5.997 4.879-10.875 10.875-10.875s10.875 4.878 10.875 10.875c0 2.495-.853 4.79-2.272 6.627a10.955 10.955 0 0 1-1.581 1.662 10.823 10.823 0 0 1-7.023 2.586c-5.997-.001-10.875-4.879-10.875-10.875z"/></symbol><symbol id="icon-pinterest" viewBox="0 0 32 32"><path d="M16.435 0C7.665 0 3 5.62 3 11.749c0 2.842 1.588 6.386 4.13 7.51.386.174.596.1.682-.258.076-.272.41-1.582.572-2.2a.566.566 0 0 0-.136-.556c-.844-.976-1.514-2.754-1.514-4.422 0-4.274 3.398-8.424 9.18-8.424 5 0 8.498 3.248 8.498 7.894 0 5.25-2.778 8.882-6.388 8.882-1.998 0-3.486-1.568-3.014-3.508.57-2.31 1.688-4.794 1.688-6.46 0-1.494-.844-2.73-2.568-2.73-2.034 0-3.684 2.014-3.684 4.718 0 1.718.608 2.878.608 2.878s-2.012 8.128-2.386 9.646c-.632 2.57.086 6.732.148 7.09.038.198.26.26.384.098.198-.26 2.63-3.73 3.312-6.238.248-.914 1.266-4.62 1.266-4.62.67 1.21 2.604 2.224 4.664 2.224 6.128 0 10.556-5.386 10.556-12.071C28.976 4.794 23.492-.001 16.433-.001z"/></symbol><symbol id="icon-shopping-cart" viewBox="0 0 32 32"><path d="M10.31 20.688h17.002a.938.938 0 0 0 .901-.68l3.75-13.125a.937.937 0 0 0-.902-1.195H8.146l-.67-3.016a.937.937 0 0 0-.915-.734H.936a.938.938 0 0 0 0 1.876h4.873l3.385 15.232a2.817 2.817 0 0 0-1.695 2.581 2.816 2.816 0 0 0 2.813 2.813h17a.938.938 0 0 0 0-1.876h-17a.937.937 0 1 1-.003-1.875zM29.82 7.563l-3.214 11.25H11.065l-2.5-11.25z"/><path d="M9.375 27.25c0 1.551 1.262 2.813 2.813 2.813s2.813-1.262 2.813-2.813-1.262-2.813-2.813-2.813-2.813 1.262-2.813 2.813zm2.813-.937c.517 0 .938.421.938.938s-.421.938-.938.938-.938-.421-.938-.938.421-.938.938-.938zm10.437.937c0 1.551 1.262 2.813 2.813 2.813s2.813-1.262 2.813-2.813-1.262-2.813-2.813-2.813-2.813 1.262-2.813 2.813zm2.813-.937c.517 0 .938.421.938.938s-.421.938-.938.938-.938-.421-.938-.938.421-.938.938-.938z"/></symbol><symbol id="icon-twitter" viewBox="0 0 32 32"><path d="M32 6.078c-1.19.522-2.458.868-3.78 1.036a6.523 6.523 0 0 0 2.886-3.626 13.11 13.11 0 0 1-4.16 1.588A6.574 6.574 0 0 0 22.154 3c-3.632 0-6.556 2.948-6.556 6.562 0 .52.044 1.02.152 1.496-5.454-.266-10.28-2.88-13.522-6.862a6.605 6.605 0 0 0-.898 3.316 6.57 6.57 0 0 0 2.914 5.452 6.479 6.479 0 0 1-2.964-.808v.072c0 3.188 2.274 5.836 5.256 6.446a6.548 6.548 0 0 1-1.72.216 5.8 5.8 0 0 1-1.242-.112c.85 2.598 3.262 4.508 6.13 4.57a13.182 13.182 0 0 1-8.134 2.798c-.538 0-1.054-.024-1.57-.09A18.469 18.469 0 0 0 10.064 29c12.072 0 18.672-10 18.672-18.668 0-.29-.01-.57-.024-.848A13.087 13.087 0 0 0 32 6.078z"/></symbol></defs></svg>