<svg>
<defs>
<symbol id="icon-facebook" viewBox="0 0 32 32">
<title>facebook</title>
<path d="M11.439 6.175c0-0.199 0.028-0.63 0.083-1.29 0.060-0.661 0.309-1.352 0.756-2.078 0.443-0.723 1.162-1.373 2.162-1.948 0.996-0.572 2.435-0.86 4.314-0.86h5.292v5.767h-3.874c-0.384 0-0.741 0.144-1.064 0.428-0.32 0.284-0.485 0.554-0.485 0.805v3.588h5.422c-0.057 0.702-0.119 1.385-0.191 2.045l-0.215 1.743c-0.086 0.589-0.173 1.134-0.259 1.637h-4.796v15.988h-7.145v-15.99h-3.485v-5.423h3.485v-4.412z"></path>
</symbol>
<symbol id="icon-instagram" viewBox="0 0 32 32">
<title>instagram</title>
<path d="M4.107 0h23.785c2.259 0 4.107 1.672 4.107 4.107v23.786c0 2.435-1.848 4.107-4.107 4.107h-23.785c-2.26 0-4.107-1.672-4.107-4.107v-23.786c0-2.435 1.848-4.107 4.107-4.107v0zM23.311 3.555c-0.792 0-1.44 0.648-1.44 1.441v3.448c0 0.792 0.648 1.441 1.44 1.441h3.617c0.792 0 1.441-0.648 1.441-1.441v-3.448c0-0.793-0.648-1.441-1.441-1.441h-3.617zM28.383 13.533h-2.816c0.266 0.87 0.411 1.792 0.411 2.745 0 5.323-4.454 9.637-9.947 9.637s-9.946-4.315-9.946-9.637c0-0.954 0.144-1.875 0.411-2.745h-2.939v13.517c0 0.7 0.572 1.272 1.272 1.272h22.284c0.7 0 1.272-0.572 1.272-1.272v-13.517h-0.001zM16.030 9.703c-3.549 0-6.427 2.788-6.427 6.227s2.878 6.227 6.427 6.227c3.549 0 6.427-2.788 6.427-6.227s-2.878-6.227-6.427-6.227z"></path>
</symbol>
<symbol id="icon-search" viewBox="0 0 32 32">
<title>search</title>
<path d="M13.389 5.241c-0.924 0-1.673 0.75-1.673 1.673 0 0.925 0.749 1.673 1.673 1.673 2.044 0 3.87 1.142 4.766 2.982 0.29 0.594 0.885 0.939 1.505 0.939 0.247 0 0.497-0.054 0.732-0.169 0.831-0.404 1.176-1.406 0.771-2.237-1.461-2.998-4.441-4.861-7.774-4.861z"></path>
<path d="M31.387 28.219l-5.575-5.576c1.651-2.322 2.631-5.151 2.631-8.211 0-7.842-6.38-14.222-14.222-14.222s-14.221 6.38-14.221 14.222c0 7.841 6.379 14.221 14.221 14.221 3.276 0 6.287-1.124 8.694-2.992l5.514 5.514c0.408 0.408 0.944 0.613 1.479 0.613 0.536 0 1.071-0.204 1.479-0.613 0.817-0.816 0.817-2.14 0-2.957zM3.347 14.433c0-5.997 4.879-10.875 10.875-10.875s10.875 4.878 10.875 10.875c0 2.495-0.853 4.79-2.272 6.627-0.469 0.607-0.996 1.166-1.581 1.662-1.897 1.609-4.346 2.586-7.023 2.586-5.997-0.001-10.875-4.879-10.875-10.875z"></path>
</symbol>
<symbol id="icon-pinterest" viewBox="0 0 32 32">
<title>pinterest</title>
<path d="M16.435 0c-8.77 0-13.435 5.62-13.435 11.749 0 2.842 1.588 6.386 4.13 7.51 0.386 0.174 0.596 0.1 0.682-0.258 0.076-0.272 0.41-1.582 0.572-2.2 0.050-0.198 0.024-0.37-0.136-0.556-0.844-0.976-1.514-2.754-1.514-4.422 0-4.274 3.398-8.424 9.18-8.424 5 0 8.498 3.248 8.498 7.894 0 5.25-2.778 8.882-6.388 8.882-1.998 0-3.486-1.568-3.014-3.508 0.57-2.31 1.688-4.794 1.688-6.46 0-1.494-0.844-2.73-2.568-2.73-2.034 0-3.684 2.014-3.684 4.718 0 1.718 0.608 2.878 0.608 2.878s-2.012 8.128-2.386 9.646c-0.632 2.57 0.086 6.732 0.148 7.090 0.038 0.198 0.26 0.26 0.384 0.098 0.198-0.26 2.63-3.73 3.312-6.238 0.248-0.914 1.266-4.62 1.266-4.62 0.67 1.21 2.604 2.224 4.664 2.224 6.128 0 10.556-5.386 10.556-12.071-0.022-6.408-5.506-11.203-12.565-11.203z"></path>
</symbol>
<symbol id="icon-shopping-cart" viewBox="0 0 32 32">
<title>shopping-cart</title>
<path d="M10.31 20.688h0.001c0.001 0 0.002-0 0.004-0h16.997c0.418 0 0.786-0.278 0.901-0.68l3.75-13.125c0.081-0.283 0.024-0.587-0.153-0.822s-0.454-0.373-0.749-0.373h-22.915l-0.67-3.016c-0.095-0.429-0.476-0.734-0.915-0.734h-5.625c-0.518 0-0.938 0.42-0.938 0.938s0.42 0.938 0.938 0.938h4.873c0.119 0.534 3.207 14.432 3.385 15.232-0.996 0.433-1.695 1.427-1.695 2.581 0 1.551 1.262 2.813 2.813 2.813h17c0.518 0 0.938-0.42 0.938-0.938s-0.42-0.938-0.938-0.938h-17c-0.517 0-0.938-0.421-0.938-0.938s0.419-0.936 0.935-0.937zM29.82 7.563l-3.214 11.25h-15.541l-2.5-11.25z"></path>
<path d="M9.375 27.25c0 1.551 1.262 2.813 2.813 2.813s2.813-1.262 2.813-2.813-1.262-2.813-2.813-2.813-2.813 1.262-2.813 2.813zM12.188 26.313c0.517 0 0.938 0.421 0.938 0.938s-0.421 0.938-0.938 0.938-0.938-0.421-0.938-0.938 0.421-0.938 0.938-0.938z"></path>
<path d="M22.625 27.25c0 1.551 1.262 2.813 2.813 2.813s2.813-1.262 2.813-2.813-1.262-2.813-2.813-2.813-2.813 1.262-2.813 2.813zM25.438 26.313c0.517 0 0.938 0.421 0.938 0.938s-0.421 0.938-0.938 0.938-0.938-0.421-0.938-0.938 0.421-0.938 0.938-0.938z"></path>
</symbol>
<symbol id="icon-twitter" viewBox="0 0 32 32">
<title>twitter</title>
<path d="M32 6.078c-1.19 0.522-2.458 0.868-3.78 1.036 1.36-0.812 2.398-2.088 2.886-3.626-1.268 0.756-2.668 1.29-4.16 1.588-1.204-1.282-2.92-2.076-4.792-2.076-3.632 0-6.556 2.948-6.556 6.562 0 0.52 0.044 1.020 0.152 1.496-5.454-0.266-10.28-2.88-13.522-6.862-0.566 0.982-0.898 2.106-0.898 3.316 0 2.272 1.17 4.286 2.914 5.452-1.054-0.020-2.088-0.326-2.964-0.808 0 0.020 0 0.046 0 0.072 0 3.188 2.274 5.836 5.256 6.446-0.534 0.146-1.116 0.216-1.72 0.216-0.42 0-0.844-0.024-1.242-0.112 0.85 2.598 3.262 4.508 6.13 4.57-2.232 1.746-5.066 2.798-8.134 2.798-0.538 0-1.054-0.024-1.57-0.090 2.906 1.874 6.35 2.944 10.064 2.944 12.072 0 18.672-10 18.672-18.668 0-0.29-0.010-0.57-0.024-0.848 1.302-0.924 2.396-2.078 3.288-3.406z"></path>
</symbol>
</defs>
</svg>
